<?xml version="1.0" encoding="UTF-8" standalone="no"?>
<!DOCTYPE svg PUBLIC "-//W3C//DTD SVG 1.1//EN"
 "http://www.w3.org/Graphics/SVG/1.1/DTD/svg11.dtd">
<!-- Generated by graphviz version 2.38.0 (20140413.2041)
 -->
<!-- Title: controllers_diagram Pages: 1 -->
<svg width="546pt" height="618pt"
 viewBox="0.00 0.00 546.00 617.50" xmlns="http://www.w3.org/2000/svg" xmlns:xlink="http://www.w3.org/1999/xlink">
<g id="graph0" class="graph" transform="scale(1 1) rotate(0) translate(238 380)">
<title>controllers_diagram</title>
<polygon fill="none" stroke="none" points="-238,237.5 -238,-380 308,-380 308,237.5 -238,237.5"/>
<!-- _diagram_info -->
<g id="node1" class="node"><title>_diagram_info</title>
<text text-anchor="start" x="98" y="134.4" font-family="Times,serif" font-size="13.00">Controllers diagram</text>
<text text-anchor="start" x="98" y="148.4" font-family="Times,serif" font-size="13.00">Date: Aug 17 2017 &#45; 20:12</text>
<text text-anchor="start" x="98" y="162.4" font-family="Times,serif" font-size="13.00">Migration version: 20170817231014</text>
<text text-anchor="start" x="98" y="176.4" font-family="Times,serif" font-size="13.00">Generated by RailRoady 1.5.3</text>
<text text-anchor="start" x="98" y="190.4" font-family="Times,serif" font-size="13.00">http://railroady.prestonlee.com</text>
</g>
<!-- ZonesController -->
<g id="node2" class="node"><title>ZonesController</title>
<path fill="none" stroke="black" d="M174.5,-162.5C174.5,-162.5 255.5,-162.5 255.5,-162.5 261.5,-162.5 267.5,-168.5 267.5,-174.5 267.5,-174.5 267.5,-363.5 267.5,-363.5 267.5,-369.5 261.5,-375.5 255.5,-375.5 255.5,-375.5 174.5,-375.5 174.5,-375.5 168.5,-375.5 162.5,-369.5 162.5,-363.5 162.5,-363.5 162.5,-174.5 162.5,-174.5 162.5,-168.5 168.5,-162.5 174.5,-162.5"/>
<text text-anchor="middle" x="215" y="-360.3" font-family="Times,serif" font-size="14.00">ZonesController</text>
<polyline fill="none" stroke="black" points="162.5,-352.5 267.5,-352.5 "/>
<text text-anchor="start" x="170.5" y="-337.3" font-family="Times,serif" font-size="14.00">create</text>
<text text-anchor="start" x="170.5" y="-322.3" font-family="Times,serif" font-size="14.00">destroy</text>
<text text-anchor="start" x="170.5" y="-307.3" font-family="Times,serif" font-size="14.00">edit</text>
<text text-anchor="start" x="170.5" y="-292.3" font-family="Times,serif" font-size="14.00">index</text>
<text text-anchor="start" x="170.5" y="-277.3" font-family="Times,serif" font-size="14.00">new</text>
<text text-anchor="start" x="170.5" y="-262.3" font-family="Times,serif" font-size="14.00">show</text>
<text text-anchor="start" x="170.5" y="-247.3" font-family="Times,serif" font-size="14.00">update</text>
<polyline fill="none" stroke="black" points="162.5,-239.5 267.5,-239.5 "/>
<polyline fill="none" stroke="black" points="162.5,-215.5 267.5,-215.5 "/>
<text text-anchor="start" x="170.5" y="-200.3" font-family="Times,serif" font-size="14.00">_layout</text>
<text text-anchor="start" x="170.5" y="-185.3" font-family="Times,serif" font-size="14.00">set_zone</text>
<text text-anchor="start" x="170.5" y="-170.3" font-family="Times,serif" font-size="14.00">zone_params</text>
</g>
<!-- CustomersController -->
<g id="node3" class="node"><title>CustomersController</title>
<path fill="none" stroke="black" d="M-59.5,107.5C-59.5,107.5 47.5,107.5 47.5,107.5 53.5,107.5 59.5,101.5 59.5,95.5 59.5,95.5 59.5,-93.5 59.5,-93.5 59.5,-99.5 53.5,-105.5 47.5,-105.5 47.5,-105.5 -59.5,-105.5 -59.5,-105.5 -65.5,-105.5 -71.5,-99.5 -71.5,-93.5 -71.5,-93.5 -71.5,95.5 -71.5,95.5 -71.5,101.5 -65.5,107.5 -59.5,107.5"/>
<text text-anchor="middle" x="-6" y="-90.3" font-family="Times,serif" font-size="14.00">CustomersController</text>
<polyline fill="none" stroke="black" points="-71.5,-82.5 59.5,-82.5 "/>
<text text-anchor="start" x="-63.5" y="-67.3" font-family="Times,serif" font-size="14.00">create</text>
<text text-anchor="start" x="-63.5" y="-52.3" font-family="Times,serif" font-size="14.00">destroy</text>
<text text-anchor="start" x="-63.5" y="-37.3" font-family="Times,serif" font-size="14.00">edit</text>
<text text-anchor="start" x="-63.5" y="-22.3" font-family="Times,serif" font-size="14.00">index</text>
<text text-anchor="start" x="-63.5" y="-7.3" font-family="Times,serif" font-size="14.00">new</text>
<text text-anchor="start" x="-63.5" y="7.7" font-family="Times,serif" font-size="14.00">show</text>
<text text-anchor="start" x="-63.5" y="22.7" font-family="Times,serif" font-size="14.00">update</text>
<polyline fill="none" stroke="black" points="-71.5,30.5 59.5,30.5 "/>
<polyline fill="none" stroke="black" points="-71.5,54.5 59.5,54.5 "/>
<text text-anchor="start" x="-63.5" y="69.7" font-family="Times,serif" font-size="14.00">_layout</text>
<text text-anchor="start" x="-63.5" y="84.7" font-family="Times,serif" font-size="14.00">customer_params</text>
<text text-anchor="start" x="-63.5" y="99.7" font-family="Times,serif" font-size="14.00">set_customer</text>
</g>
<!-- AddressesController -->
<g id="node4" class="node"><title>AddressesController</title>
<path fill="none" stroke="black" d="M102,89.5C102,89.5 206,89.5 206,89.5 212,89.5 218,83.5 218,77.5 218,77.5 218,-111.5 218,-111.5 218,-117.5 212,-123.5 206,-123.5 206,-123.5 102,-123.5 102,-123.5 96,-123.5 90,-117.5 90,-111.5 90,-111.5 90,77.5 90,77.5 90,83.5 96,89.5 102,89.5"/>
<text text-anchor="middle" x="154" y="-108.3" font-family="Times,serif" font-size="14.00">AddressesController</text>
<polyline fill="none" stroke="black" points="90,-100.5 218,-100.5 "/>
<text text-anchor="start" x="98" y="-85.3" font-family="Times,serif" font-size="14.00">create</text>
<text text-anchor="start" x="98" y="-70.3" font-family="Times,serif" font-size="14.00">destroy</text>
<text text-anchor="start" x="98" y="-55.3" font-family="Times,serif" font-size="14.00">edit</text>
<text text-anchor="start" x="98" y="-40.3" font-family="Times,serif" font-size="14.00">index</text>
<text text-anchor="start" x="98" y="-25.3" font-family="Times,serif" font-size="14.00">new</text>
<text text-anchor="start" x="98" y="-10.3" font-family="Times,serif" font-size="14.00">show</text>
<text text-anchor="start" x="98" y="4.7" font-family="Times,serif" font-size="14.00">update</text>
<polyline fill="none" stroke="black" points="90,12.5 218,12.5 "/>
<polyline fill="none" stroke="black" points="90,36.5 218,36.5 "/>
<text text-anchor="start" x="98" y="51.7" font-family="Times,serif" font-size="14.00">_layout</text>
<text text-anchor="start" x="98" y="66.7" font-family="Times,serif" font-size="14.00">address_params</text>
<text text-anchor="start" x="98" y="81.7" font-family="Times,serif" font-size="14.00">set_address</text>
</g>
<!-- ApplicationController -->
<g id="node5" class="node"><title>ApplicationController</title>
<path fill="none" stroke="black" d="M-222,233C-222,233 -110,233 -110,233 -104,233 -98,227 -98,221 -98,221 -98,151 -98,151 -98,145 -104,139 -110,139 -110,139 -222,139 -222,139 -228,139 -234,145 -234,151 -234,151 -234,221 -234,221 -234,227 -228,233 -222,233"/>
<text text-anchor="middle" x="-166" y="154.2" font-family="Times,serif" font-size="14.00">ApplicationController</text>
<polyline fill="none" stroke="black" points="-234,162 -98,162 "/>
<polyline fill="none" stroke="black" points="-234,186 -98,186 "/>
<polyline fill="none" stroke="black" points="-234,210 -98,210 "/>
<text text-anchor="start" x="-226" y="225.2" font-family="Times,serif" font-size="14.00">_layout</text>
</g>
<!-- BeneficesController -->
<g id="node6" class="node"><title>BeneficesController</title>
<path fill="none" stroke="black" d="M-60.5,-144.5C-60.5,-144.5 40.5,-144.5 40.5,-144.5 46.5,-144.5 52.5,-150.5 52.5,-156.5 52.5,-156.5 52.5,-345.5 52.5,-345.5 52.5,-351.5 46.5,-357.5 40.5,-357.5 40.5,-357.5 -60.5,-357.5 -60.5,-357.5 -66.5,-357.5 -72.5,-351.5 -72.5,-345.5 -72.5,-345.5 -72.5,-156.5 -72.5,-156.5 -72.5,-150.5 -66.5,-144.5 -60.5,-144.5"/>
<text text-anchor="middle" x="-10" y="-342.3" font-family="Times,serif" font-size="14.00">BeneficesController</text>
<polyline fill="none" stroke="black" points="-72.5,-334.5 52.5,-334.5 "/>
<text text-anchor="start" x="-64.5" y="-319.3" font-family="Times,serif" font-size="14.00">create</text>
<text text-anchor="start" x="-64.5" y="-304.3" font-family="Times,serif" font-size="14.00">destroy</text>
<text text-anchor="start" x="-64.5" y="-289.3" font-family="Times,serif" font-size="14.00">edit</text>
<text text-anchor="start" x="-64.5" y="-274.3" font-family="Times,serif" font-size="14.00">index</text>
<text text-anchor="start" x="-64.5" y="-259.3" font-family="Times,serif" font-size="14.00">new</text>
<text text-anchor="start" x="-64.5" y="-244.3" font-family="Times,serif" font-size="14.00">show</text>
<text text-anchor="start" x="-64.5" y="-229.3" font-family="Times,serif" font-size="14.00">update</text>
<polyline fill="none" stroke="black" points="-72.5,-221.5 52.5,-221.5 "/>
<polyline fill="none" stroke="black" points="-72.5,-197.5 52.5,-197.5 "/>
<text text-anchor="start" x="-64.5" y="-182.3" font-family="Times,serif" font-size="14.00">_layout</text>
<text text-anchor="start" x="-64.5" y="-167.3" font-family="Times,serif" font-size="14.00">benefice_params</text>
<text text-anchor="start" x="-64.5" y="-152.3" font-family="Times,serif" font-size="14.00">set_benefice</text>
</g>
</g>
</svg>
