<?xml version="1.0" encoding="UTF-8" standalone="no"?>
<!DOCTYPE svg PUBLIC "-//W3C//DTD SVG 1.1//EN"
 "http://www.w3.org/Graphics/SVG/1.1/DTD/svg11.dtd">
<!-- Generated by graphviz version 2.38.0 (20140413.2041)
 -->
<!-- Title: controllers_diagram Pages: 1 -->
<svg width="456pt" height="581pt"
 viewBox="0.00 0.00 455.50 581.50" xmlns="http://www.w3.org/2000/svg" xmlns:xlink="http://www.w3.org/1999/xlink">
<g id="graph0" class="graph" transform="scale(1 1) rotate(0) translate(75.5 362)">
<title>controllers_diagram</title>
<polygon fill="none" stroke="none" points="-75.5,219.5 -75.5,-362 380,-362 380,219.5 -75.5,219.5"/>
<!-- _diagram_info -->
<g id="node1" class="node"><title>_diagram_info</title>
<text text-anchor="start" x="170" y="-225.6" font-family="Times,serif" font-size="13.00">Controllers diagram</text>
<text text-anchor="start" x="170" y="-211.6" font-family="Times,serif" font-size="13.00">Date: Aug 17 2017 &#45; 17:36</text>
<text text-anchor="start" x="170" y="-197.6" font-family="Times,serif" font-size="13.00">Migration version: 20170817203129</text>
<text text-anchor="start" x="170" y="-183.6" font-family="Times,serif" font-size="13.00">Generated by RailRoady 1.5.3</text>
<text text-anchor="start" x="170" y="-169.6" font-family="Times,serif" font-size="13.00">http://railroady.prestonlee.com</text>
</g>
<!-- ZonesController -->
<g id="node2" class="node"><title>ZonesController</title>
<path fill="none" stroke="black" d="M-41.5,-144.5C-41.5,-144.5 39.5,-144.5 39.5,-144.5 45.5,-144.5 51.5,-150.5 51.5,-156.5 51.5,-156.5 51.5,-345.5 51.5,-345.5 51.5,-351.5 45.5,-357.5 39.5,-357.5 39.5,-357.5 -41.5,-357.5 -41.5,-357.5 -47.5,-357.5 -53.5,-351.5 -53.5,-345.5 -53.5,-345.5 -53.5,-156.5 -53.5,-156.5 -53.5,-150.5 -47.5,-144.5 -41.5,-144.5"/>
<text text-anchor="middle" x="-1" y="-342.3" font-family="Times,serif" font-size="14.00">ZonesController</text>
<polyline fill="none" stroke="black" points="-53.5,-334.5 51.5,-334.5 "/>
<text text-anchor="start" x="-45.5" y="-319.3" font-family="Times,serif" font-size="14.00">create</text>
<text text-anchor="start" x="-45.5" y="-304.3" font-family="Times,serif" font-size="14.00">destroy</text>
<text text-anchor="start" x="-45.5" y="-289.3" font-family="Times,serif" font-size="14.00">edit</text>
<text text-anchor="start" x="-45.5" y="-274.3" font-family="Times,serif" font-size="14.00">index</text>
<text text-anchor="start" x="-45.5" y="-259.3" font-family="Times,serif" font-size="14.00">new</text>
<text text-anchor="start" x="-45.5" y="-244.3" font-family="Times,serif" font-size="14.00">show</text>
<text text-anchor="start" x="-45.5" y="-229.3" font-family="Times,serif" font-size="14.00">update</text>
<polyline fill="none" stroke="black" points="-53.5,-221.5 51.5,-221.5 "/>
<polyline fill="none" stroke="black" points="-53.5,-197.5 51.5,-197.5 "/>
<text text-anchor="start" x="-45.5" y="-182.3" font-family="Times,serif" font-size="14.00">_layout</text>
<text text-anchor="start" x="-45.5" y="-167.3" font-family="Times,serif" font-size="14.00">set_zone</text>
<text text-anchor="start" x="-45.5" y="-152.3" font-family="Times,serif" font-size="14.00">zone_params</text>
</g>
<!-- CustomersController -->
<g id="node3" class="node"><title>CustomersController</title>
<path fill="none" stroke="black" d="M-59.5,107.5C-59.5,107.5 47.5,107.5 47.5,107.5 53.5,107.5 59.5,101.5 59.5,95.5 59.5,95.5 59.5,-93.5 59.5,-93.5 59.5,-99.5 53.5,-105.5 47.5,-105.5 47.5,-105.5 -59.5,-105.5 -59.5,-105.5 -65.5,-105.5 -71.5,-99.5 -71.5,-93.5 -71.5,-93.5 -71.5,95.5 -71.5,95.5 -71.5,101.5 -65.5,107.5 -59.5,107.5"/>
<text text-anchor="middle" x="-6" y="-90.3" font-family="Times,serif" font-size="14.00">CustomersController</text>
<polyline fill="none" stroke="black" points="-71.5,-82.5 59.5,-82.5 "/>
<text text-anchor="start" x="-63.5" y="-67.3" font-family="Times,serif" font-size="14.00">create</text>
<text text-anchor="start" x="-63.5" y="-52.3" font-family="Times,serif" font-size="14.00">destroy</text>
<text text-anchor="start" x="-63.5" y="-37.3" font-family="Times,serif" font-size="14.00">edit</text>
<text text-anchor="start" x="-63.5" y="-22.3" font-family="Times,serif" font-size="14.00">index</text>
<text text-anchor="start" x="-63.5" y="-7.3" font-family="Times,serif" font-size="14.00">new</text>
<text text-anchor="start" x="-63.5" y="7.7" font-family="Times,serif" font-size="14.00">show</text>
<text text-anchor="start" x="-63.5" y="22.7" font-family="Times,serif" font-size="14.00">update</text>
<polyline fill="none" stroke="black" points="-71.5,30.5 59.5,30.5 "/>
<polyline fill="none" stroke="black" points="-71.5,54.5 59.5,54.5 "/>
<text text-anchor="start" x="-63.5" y="69.7" font-family="Times,serif" font-size="14.00">_layout</text>
<text text-anchor="start" x="-63.5" y="84.7" font-family="Times,serif" font-size="14.00">customer_params</text>
<text text-anchor="start" x="-63.5" y="99.7" font-family="Times,serif" font-size="14.00">set_customer</text>
</g>
<!-- AddressesController -->
<g id="node4" class="node"><title>AddressesController</title>
<path fill="none" stroke="black" d="M102,89.5C102,89.5 206,89.5 206,89.5 212,89.5 218,83.5 218,77.5 218,77.5 218,-111.5 218,-111.5 218,-117.5 212,-123.5 206,-123.5 206,-123.5 102,-123.5 102,-123.5 96,-123.5 90,-117.5 90,-111.5 90,-111.5 90,77.5 90,77.5 90,83.5 96,89.5 102,89.5"/>
<text text-anchor="middle" x="154" y="-108.3" font-family="Times,serif" font-size="14.00">AddressesController</text>
<polyline fill="none" stroke="black" points="90,-100.5 218,-100.5 "/>
<text text-anchor="start" x="98" y="-85.3" font-family="Times,serif" font-size="14.00">create</text>
<text text-anchor="start" x="98" y="-70.3" font-family="Times,serif" font-size="14.00">destroy</text>
<text text-anchor="start" x="98" y="-55.3" font-family="Times,serif" font-size="14.00">edit</text>
<text text-anchor="start" x="98" y="-40.3" font-family="Times,serif" font-size="14.00">index</text>
<text text-anchor="start" x="98" y="-25.3" font-family="Times,serif" font-size="14.00">new</text>
<text text-anchor="start" x="98" y="-10.3" font-family="Times,serif" font-size="14.00">show</text>
<text text-anchor="start" x="98" y="4.7" font-family="Times,serif" font-size="14.00">update</text>
<polyline fill="none" stroke="black" points="90,12.5 218,12.5 "/>
<polyline fill="none" stroke="black" points="90,36.5 218,36.5 "/>
<text text-anchor="start" x="98" y="51.7" font-family="Times,serif" font-size="14.00">_layout</text>
<text text-anchor="start" x="98" y="66.7" font-family="Times,serif" font-size="14.00">address_params</text>
<text text-anchor="start" x="98" y="81.7" font-family="Times,serif" font-size="14.00">set_address</text>
</g>
<!-- ApplicationController -->
<g id="node5" class="node"><title>ApplicationController</title>
<path fill="none" stroke="black" d="M102,215C102,215 214,215 214,215 220,215 226,209 226,203 226,203 226,133 226,133 226,127 220,121 214,121 214,121 102,121 102,121 96,121 90,127 90,133 90,133 90,203 90,203 90,209 96,215 102,215"/>
<text text-anchor="middle" x="158" y="136.2" font-family="Times,serif" font-size="14.00">ApplicationController</text>
<polyline fill="none" stroke="black" points="90,144 226,144 "/>
<polyline fill="none" stroke="black" points="90,168 226,168 "/>
<polyline fill="none" stroke="black" points="90,192 226,192 "/>
<text text-anchor="start" x="98" y="207.2" font-family="Times,serif" font-size="14.00">_layout</text>
</g>
</g>
</svg>
