<?xml version="1.0" encoding="UTF-8" standalone="no"?>
<!DOCTYPE svg PUBLIC "-//W3C//DTD SVG 1.1//EN"
 "http://www.w3.org/Graphics/SVG/1.1/DTD/svg11.dtd">
<!-- Generated by graphviz version 2.38.0 (20140413.2041)
 -->
<!-- Title: models_diagram Pages: 1 -->
<svg width="552pt" height="461pt"
 viewBox="0.00 0.00 552.34 461.00" xmlns="http://www.w3.org/2000/svg" xmlns:xlink="http://www.w3.org/1999/xlink">
<g id="graph0" class="graph" transform="scale(1 1) rotate(0) translate(4 457)">
<title>models_diagram</title>
<polygon fill="none" stroke="none" points="-4,4 -4,-457 548.343,-457 548.343,4 -4,4"/>
<!-- _diagram_info -->
<g id="node1" class="node"><title>_diagram_info</title>
<text text-anchor="start" x="8" y="-424.1" font-family="Times,serif" font-size="13.00">Models diagram</text>
<text text-anchor="start" x="8" y="-410.1" font-family="Times,serif" font-size="13.00">Date: Aug 17 2017 &#45; 17:35</text>
<text text-anchor="start" x="8" y="-396.1" font-family="Times,serif" font-size="13.00">Migration version: 20170817203129</text>
<text text-anchor="start" x="8" y="-382.1" font-family="Times,serif" font-size="13.00">Generated by RailRoady 1.5.3</text>
<text text-anchor="start" x="8" y="-368.1" font-family="Times,serif" font-size="13.00">http://railroady.prestonlee.com</text>
</g>
<!-- Address -->
<g id="node2" class="node"><title>Address</title>
<path fill="none" stroke="black" d="M173.5,-0.5C173.5,-0.5 280.5,-0.5 280.5,-0.5 286.5,-0.5 292.5,-6.5 292.5,-12.5 292.5,-12.5 292.5,-124.5 292.5,-124.5 292.5,-130.5 286.5,-136.5 280.5,-136.5 280.5,-136.5 173.5,-136.5 173.5,-136.5 167.5,-136.5 161.5,-130.5 161.5,-124.5 161.5,-124.5 161.5,-12.5 161.5,-12.5 161.5,-6.5 167.5,-0.5 173.5,-0.5"/>
<text text-anchor="middle" x="227" y="-121.3" font-family="Times,serif" font-size="14.00">Address</text>
<polyline fill="none" stroke="black" points="161.5,-113.5 292.5,-113.5 "/>
<text text-anchor="start" x="169.5" y="-98.3" font-family="Times,serif" font-size="14.00">id :INTEGER</text>
<text text-anchor="start" x="169.5" y="-83.3" font-family="Times,serif" font-size="14.00">address :varchar</text>
<text text-anchor="start" x="169.5" y="-68.3" font-family="Times,serif" font-size="14.00">latitude :float</text>
<text text-anchor="start" x="169.5" y="-53.3" font-family="Times,serif" font-size="14.00">longitude :float</text>
<text text-anchor="start" x="169.5" y="-38.3" font-family="Times,serif" font-size="14.00">customer_id :integer</text>
<text text-anchor="start" x="169.5" y="-23.3" font-family="Times,serif" font-size="14.00">created_at :datetime</text>
<text text-anchor="start" x="169.5" y="-8.3" font-family="Times,serif" font-size="14.00">updated_at :datetime</text>
</g>
<!-- Customer -->
<g id="node3" class="node"><title>Customer</title>
<path fill="none" stroke="black" d="M173.5,-173.5C173.5,-173.5 280.5,-173.5 280.5,-173.5 286.5,-173.5 292.5,-179.5 292.5,-185.5 292.5,-185.5 292.5,-297.5 292.5,-297.5 292.5,-303.5 286.5,-309.5 280.5,-309.5 280.5,-309.5 173.5,-309.5 173.5,-309.5 167.5,-309.5 161.5,-303.5 161.5,-297.5 161.5,-297.5 161.5,-185.5 161.5,-185.5 161.5,-179.5 167.5,-173.5 173.5,-173.5"/>
<text text-anchor="middle" x="227" y="-294.3" font-family="Times,serif" font-size="14.00">Customer</text>
<polyline fill="none" stroke="black" points="161.5,-286.5 292.5,-286.5 "/>
<text text-anchor="start" x="169.5" y="-271.3" font-family="Times,serif" font-size="14.00">id :INTEGER</text>
<text text-anchor="start" x="169.5" y="-256.3" font-family="Times,serif" font-size="14.00">n_socio :varchar</text>
<text text-anchor="start" x="169.5" y="-241.3" font-family="Times,serif" font-size="14.00">nombre :varchar</text>
<text text-anchor="start" x="169.5" y="-226.3" font-family="Times,serif" font-size="14.00">apellido :varchar</text>
<text text-anchor="start" x="169.5" y="-211.3" font-family="Times,serif" font-size="14.00">created_at :datetime</text>
<text text-anchor="start" x="169.5" y="-196.3" font-family="Times,serif" font-size="14.00">updated_at :datetime</text>
<text text-anchor="start" x="169.5" y="-181.3" font-family="Times,serif" font-size="14.00">zone_id :integer</text>
</g>
<!-- Customer&#45;&gt;Address -->
<g id="edge1" class="edge"><title>Customer&#45;&gt;Address</title>
<path fill="none" stroke="#a43c2d" d="M227,-165.136C227,-159.066 227,-152.927 227,-146.844"/>
<ellipse fill="none" stroke="#a43c2d" cx="227" cy="-169.407" rx="4" ry="4"/>
<polygon fill="#a43c2d" stroke="#a43c2d" points="227,-146.68 231.5,-136.68 227,-141.68 227,-136.68 227,-136.68 227,-136.68 227,-141.68 222.5,-136.68 227,-146.68 227,-146.68"/>
</g>
<!-- Zone -->
<g id="node4" class="node"><title>Zone</title>
<path fill="none" stroke="black" d="M244.5,-346.5C244.5,-346.5 359.5,-346.5 359.5,-346.5 365.5,-346.5 371.5,-352.5 371.5,-358.5 371.5,-358.5 371.5,-440.5 371.5,-440.5 371.5,-446.5 365.5,-452.5 359.5,-452.5 359.5,-452.5 244.5,-452.5 244.5,-452.5 238.5,-452.5 232.5,-446.5 232.5,-440.5 232.5,-440.5 232.5,-358.5 232.5,-358.5 232.5,-352.5 238.5,-346.5 244.5,-346.5"/>
<text text-anchor="middle" x="302" y="-437.3" font-family="Times,serif" font-size="14.00">Zone</text>
<polyline fill="none" stroke="black" points="232.5,-429.5 371.5,-429.5 "/>
<text text-anchor="start" x="240.5" y="-414.3" font-family="Times,serif" font-size="14.00">id :INTEGER</text>
<text text-anchor="start" x="240.5" y="-399.3" font-family="Times,serif" font-size="14.00">nombre_zona :varchar</text>
<text text-anchor="start" x="240.5" y="-384.3" font-family="Times,serif" font-size="14.00">color :varchar</text>
<text text-anchor="start" x="240.5" y="-369.3" font-family="Times,serif" font-size="14.00">created_at :datetime</text>
<text text-anchor="start" x="240.5" y="-354.3" font-family="Times,serif" font-size="14.00">updated_at :datetime</text>
</g>
<!-- Zone&#45;&gt;Customer -->
<g id="edge3" class="edge"><title>Zone&#45;&gt;Customer</title>
<path fill="none" stroke="#8b805c" d="M273.348,-338.904C270.191,-332.338 266.946,-325.588 263.709,-318.855"/>
<ellipse fill="none" stroke="#8b805c" cx="275.084" cy="-342.515" rx="4.00002" ry="4.00002"/>
<polygon fill="#8b805c" stroke="#8b805c" points="263.641,-318.714 263.364,-307.752 261.475,-314.208 259.308,-309.701 259.308,-309.701 259.308,-309.701 261.475,-314.208 255.253,-311.651 263.641,-318.714 263.641,-318.714"/>
</g>
<!-- CoordinateZone -->
<g id="node6" class="node"><title>CoordinateZone</title>
<path fill="none" stroke="black" d="M322.5,-181C322.5,-181 429.5,-181 429.5,-181 435.5,-181 441.5,-187 441.5,-193 441.5,-193 441.5,-290 441.5,-290 441.5,-296 435.5,-302 429.5,-302 429.5,-302 322.5,-302 322.5,-302 316.5,-302 310.5,-296 310.5,-290 310.5,-290 310.5,-193 310.5,-193 310.5,-187 316.5,-181 322.5,-181"/>
<text text-anchor="middle" x="376" y="-286.8" font-family="Times,serif" font-size="14.00">CoordinateZone</text>
<polyline fill="none" stroke="black" points="310.5,-279 441.5,-279 "/>
<text text-anchor="start" x="318.5" y="-263.8" font-family="Times,serif" font-size="14.00">id :INTEGER</text>
<text text-anchor="start" x="318.5" y="-248.8" font-family="Times,serif" font-size="14.00">latitud :float</text>
<text text-anchor="start" x="318.5" y="-233.8" font-family="Times,serif" font-size="14.00">longitud :float</text>
<text text-anchor="start" x="318.5" y="-218.8" font-family="Times,serif" font-size="14.00">zone_id :integer</text>
<text text-anchor="start" x="318.5" y="-203.8" font-family="Times,serif" font-size="14.00">created_at :datetime</text>
<text text-anchor="start" x="318.5" y="-188.8" font-family="Times,serif" font-size="14.00">updated_at :datetime</text>
</g>
<!-- Zone&#45;&gt;CoordinateZone -->
<g id="edge2" class="edge"><title>Zone&#45;&gt;CoordinateZone</title>
<path fill="none" stroke="#60b4dd" d="M330.359,-338.717C334.641,-329.69 339.086,-320.318 343.448,-311.123"/>
<ellipse fill="none" stroke="#60b4dd" cx="328.561" cy="-342.506" rx="4.00002" ry="4.00002"/>
<polygon fill="#60b4dd" stroke="#60b4dd" points="343.487,-311.04 351.839,-303.934 345.63,-306.523 347.773,-302.005 347.773,-302.005 347.773,-302.005 345.63,-306.523 343.707,-300.077 343.487,-311.04 343.487,-311.04"/>
</g>
<!-- ApplicationRecord -->
<g id="node5" class="node"><title>ApplicationRecord</title>
<ellipse fill="none" stroke="black" cx="467" cy="-399.5" rx="77.1866" ry="18"/>
<text text-anchor="middle" x="467" y="-395.8" font-family="Times,serif" font-size="14.00">ApplicationRecord</text>
</g>
</g>
</svg>
