<?xml version="1.0" encoding="UTF-8" standalone="no"?>
<!DOCTYPE svg PUBLIC "-//W3C//DTD SVG 1.1//EN"
 "http://www.w3.org/Graphics/SVG/1.1/DTD/svg11.dtd">
<!-- Generated by graphviz version 2.38.0 (20140413.2041)
 -->
<!-- Title: models_diagram Pages: 1 -->
<svg width="552pt" height="491pt"
 viewBox="0.00 0.00 552.34 491.00" xmlns="http://www.w3.org/2000/svg" xmlns:xlink="http://www.w3.org/1999/xlink">
<g id="graph0" class="graph" transform="scale(1 1) rotate(0) translate(4 487)">
<title>models_diagram</title>
<polygon fill="none" stroke="none" points="-4,4 -4,-487 548.343,-487 548.343,4 -4,4"/>
<!-- _diagram_info -->
<g id="node1" class="node"><title>_diagram_info</title>
<text text-anchor="start" x="8" y="-454.1" font-family="Times,serif" font-size="13.00">Models diagram</text>
<text text-anchor="start" x="8" y="-440.1" font-family="Times,serif" font-size="13.00">Date: Aug 17 2017 &#45; 21:13</text>
<text text-anchor="start" x="8" y="-426.1" font-family="Times,serif" font-size="13.00">Migration version: 20170817234242</text>
<text text-anchor="start" x="8" y="-412.1" font-family="Times,serif" font-size="13.00">Generated by RailRoady 1.5.3</text>
<text text-anchor="start" x="8" y="-398.1" font-family="Times,serif" font-size="13.00">http://railroady.prestonlee.com</text>
</g>
<!-- Address -->
<g id="node2" class="node"><title>Address</title>
<path fill="none" stroke="black" d="M168.5,-0.5C168.5,-0.5 275.5,-0.5 275.5,-0.5 281.5,-0.5 287.5,-6.5 287.5,-12.5 287.5,-12.5 287.5,-124.5 287.5,-124.5 287.5,-130.5 281.5,-136.5 275.5,-136.5 275.5,-136.5 168.5,-136.5 168.5,-136.5 162.5,-136.5 156.5,-130.5 156.5,-124.5 156.5,-124.5 156.5,-12.5 156.5,-12.5 156.5,-6.5 162.5,-0.5 168.5,-0.5"/>
<text text-anchor="middle" x="222" y="-121.3" font-family="Times,serif" font-size="14.00">Address</text>
<polyline fill="none" stroke="black" points="156.5,-113.5 287.5,-113.5 "/>
<text text-anchor="start" x="164.5" y="-98.3" font-family="Times,serif" font-size="14.00">id :INTEGER</text>
<text text-anchor="start" x="164.5" y="-83.3" font-family="Times,serif" font-size="14.00">address :varchar</text>
<text text-anchor="start" x="164.5" y="-68.3" font-family="Times,serif" font-size="14.00">latitude :float</text>
<text text-anchor="start" x="164.5" y="-53.3" font-family="Times,serif" font-size="14.00">longitude :float</text>
<text text-anchor="start" x="164.5" y="-38.3" font-family="Times,serif" font-size="14.00">customer_id :integer</text>
<text text-anchor="start" x="164.5" y="-23.3" font-family="Times,serif" font-size="14.00">created_at :datetime</text>
<text text-anchor="start" x="164.5" y="-8.3" font-family="Times,serif" font-size="14.00">updated_at :datetime</text>
</g>
<!-- Customer -->
<g id="node3" class="node"><title>Customer</title>
<path fill="none" stroke="black" d="M159,-173.5C159,-173.5 285,-173.5 285,-173.5 291,-173.5 297,-179.5 297,-185.5 297,-185.5 297,-327.5 297,-327.5 297,-333.5 291,-339.5 285,-339.5 285,-339.5 159,-339.5 159,-339.5 153,-339.5 147,-333.5 147,-327.5 147,-327.5 147,-185.5 147,-185.5 147,-179.5 153,-173.5 159,-173.5"/>
<text text-anchor="middle" x="222" y="-324.3" font-family="Times,serif" font-size="14.00">Customer</text>
<polyline fill="none" stroke="black" points="147,-316.5 297,-316.5 "/>
<text text-anchor="start" x="155" y="-301.3" font-family="Times,serif" font-size="14.00">id :INTEGER</text>
<text text-anchor="start" x="155" y="-286.3" font-family="Times,serif" font-size="14.00">n_socio :varchar</text>
<text text-anchor="start" x="155" y="-271.3" font-family="Times,serif" font-size="14.00">nombre :varchar</text>
<text text-anchor="start" x="155" y="-256.3" font-family="Times,serif" font-size="14.00">apellido :varchar</text>
<text text-anchor="start" x="155" y="-241.3" font-family="Times,serif" font-size="14.00">created_at :datetime</text>
<text text-anchor="start" x="155" y="-226.3" font-family="Times,serif" font-size="14.00">updated_at :datetime</text>
<text text-anchor="start" x="155" y="-211.3" font-family="Times,serif" font-size="14.00">zone_id :integer</text>
<text text-anchor="start" x="155" y="-196.3" font-family="Times,serif" font-size="14.00">estado :varchar</text>
<text text-anchor="start" x="155" y="-181.3" font-family="Times,serif" font-size="14.00">fecha_vencimiento :date</text>
</g>
<!-- Customer&#45;&gt;Address -->
<g id="edge1" class="edge"><title>Customer&#45;&gt;Address</title>
<path fill="none" stroke="#86bd02" d="M222,-165.302C222,-159.129 222,-152.941 222,-146.844"/>
<ellipse fill="none" stroke="#86bd02" cx="222" cy="-169.376" rx="4" ry="4"/>
<polygon fill="#86bd02" stroke="#86bd02" points="222,-146.691 226.5,-136.691 222,-141.691 222,-136.691 222,-136.691 222,-136.691 222,-141.691 217.5,-136.691 222,-146.691 222,-146.691"/>
</g>
<!-- Zone -->
<g id="node4" class="node"><title>Zone</title>
<path fill="none" stroke="black" d="M244.5,-376.5C244.5,-376.5 359.5,-376.5 359.5,-376.5 365.5,-376.5 371.5,-382.5 371.5,-388.5 371.5,-388.5 371.5,-470.5 371.5,-470.5 371.5,-476.5 365.5,-482.5 359.5,-482.5 359.5,-482.5 244.5,-482.5 244.5,-482.5 238.5,-482.5 232.5,-476.5 232.5,-470.5 232.5,-470.5 232.5,-388.5 232.5,-388.5 232.5,-382.5 238.5,-376.5 244.5,-376.5"/>
<text text-anchor="middle" x="302" y="-467.3" font-family="Times,serif" font-size="14.00">Zone</text>
<polyline fill="none" stroke="black" points="232.5,-459.5 371.5,-459.5 "/>
<text text-anchor="start" x="240.5" y="-444.3" font-family="Times,serif" font-size="14.00">id :INTEGER</text>
<text text-anchor="start" x="240.5" y="-429.3" font-family="Times,serif" font-size="14.00">nombre_zona :varchar</text>
<text text-anchor="start" x="240.5" y="-414.3" font-family="Times,serif" font-size="14.00">color :varchar</text>
<text text-anchor="start" x="240.5" y="-399.3" font-family="Times,serif" font-size="14.00">created_at :datetime</text>
<text text-anchor="start" x="240.5" y="-384.3" font-family="Times,serif" font-size="14.00">updated_at :datetime</text>
</g>
<!-- Zone&#45;&gt;Customer -->
<g id="edge3" class="edge"><title>Zone&#45;&gt;Customer</title>
<path fill="none" stroke="#cef0da" d="M274.076,-368.812C271.043,-362.329 267.908,-355.628 264.75,-348.878"/>
<ellipse fill="none" stroke="#cef0da" cx="275.868" cy="-372.642" rx="4.00002" ry="4.00002"/>
<polygon fill="#cef0da" stroke="#cef0da" points="264.674,-348.716 264.513,-337.751 262.555,-344.187 260.437,-339.658 260.437,-339.658 260.437,-339.658 262.555,-344.187 256.361,-341.565 264.674,-348.716 264.674,-348.716"/>
</g>
<!-- CoordinateZone -->
<g id="node6" class="node"><title>CoordinateZone</title>
<path fill="none" stroke="black" d="M327.5,-196C327.5,-196 434.5,-196 434.5,-196 440.5,-196 446.5,-202 446.5,-208 446.5,-208 446.5,-305 446.5,-305 446.5,-311 440.5,-317 434.5,-317 434.5,-317 327.5,-317 327.5,-317 321.5,-317 315.5,-311 315.5,-305 315.5,-305 315.5,-208 315.5,-208 315.5,-202 321.5,-196 327.5,-196"/>
<text text-anchor="middle" x="381" y="-301.8" font-family="Times,serif" font-size="14.00">CoordinateZone</text>
<polyline fill="none" stroke="black" points="315.5,-294 446.5,-294 "/>
<text text-anchor="start" x="323.5" y="-278.8" font-family="Times,serif" font-size="14.00">id :INTEGER</text>
<text text-anchor="start" x="323.5" y="-263.8" font-family="Times,serif" font-size="14.00">latitud :float</text>
<text text-anchor="start" x="323.5" y="-248.8" font-family="Times,serif" font-size="14.00">longitud :float</text>
<text text-anchor="start" x="323.5" y="-233.8" font-family="Times,serif" font-size="14.00">zone_id :integer</text>
<text text-anchor="start" x="323.5" y="-218.8" font-family="Times,serif" font-size="14.00">created_at :datetime</text>
<text text-anchor="start" x="323.5" y="-203.8" font-family="Times,serif" font-size="14.00">updated_at :datetime</text>
</g>
<!-- Zone&#45;&gt;CoordinateZone -->
<g id="edge2" class="edge"><title>Zone&#45;&gt;CoordinateZone</title>
<path fill="none" stroke="#72f36a" d="M329.623,-368.708C335.949,-355.015 342.723,-340.352 349.209,-326.314"/>
<ellipse fill="none" stroke="#72f36a" cx="327.809" cy="-372.634" rx="4.00002" ry="4.00002"/>
<polygon fill="#72f36a" stroke="#72f36a" points="349.228,-326.273 357.507,-319.082 351.325,-321.734 353.422,-317.195 353.422,-317.195 353.422,-317.195 351.325,-321.734 349.337,-315.308 349.228,-326.273 349.228,-326.273"/>
</g>
<!-- ApplicationRecord -->
<g id="node5" class="node"><title>ApplicationRecord</title>
<ellipse fill="none" stroke="black" cx="467" cy="-429.5" rx="77.1866" ry="18"/>
<text text-anchor="middle" x="467" y="-425.8" font-family="Times,serif" font-size="14.00">ApplicationRecord</text>
</g>
</g>
</svg>
