<?xml version="1.0" encoding="UTF-8" standalone="no"?>
<!DOCTYPE svg PUBLIC "-//W3C//DTD SVG 1.1//EN"
 "http://www.w3.org/Graphics/SVG/1.1/DTD/svg11.dtd">
<!-- Generated by graphviz version 2.38.0 (20140413.2041)
 -->
<!-- Title: models_diagram Pages: 1 -->
<svg width="470pt" height="230pt"
 viewBox="0.00 0.00 470.34 230.00" xmlns="http://www.w3.org/2000/svg" xmlns:xlink="http://www.w3.org/1999/xlink">
<g id="graph0" class="graph" transform="scale(1 1) rotate(0) translate(4 226)">
<title>models_diagram</title>
<polygon fill="none" stroke="none" points="-4,4 -4,-226 466.343,-226 466.343,4 -4,4"/>
<!-- _diagram_info -->
<g id="node1" class="node"><title>_diagram_info</title>
<text text-anchor="start" x="8" y="-207.6" font-family="Times,serif" font-size="13.00">Models diagram</text>
<text text-anchor="start" x="8" y="-193.6" font-family="Times,serif" font-size="13.00">Date: Aug 17 2017 &#45; 21:13</text>
<text text-anchor="start" x="8" y="-179.6" font-family="Times,serif" font-size="13.00">Migration version: 20170817234242</text>
<text text-anchor="start" x="8" y="-165.6" font-family="Times,serif" font-size="13.00">Generated by RailRoady 1.5.3</text>
<text text-anchor="start" x="8" y="-151.6" font-family="Times,serif" font-size="13.00">http://railroady.prestonlee.com</text>
</g>
<!-- Address -->
<g id="node2" class="node"><title>Address</title>
<ellipse fill="none" stroke="black" cx="195" cy="-18" rx="39.7935" ry="18"/>
<text text-anchor="middle" x="195" y="-14.3" font-family="Times,serif" font-size="14.00">Address</text>
</g>
<!-- Customer -->
<g id="node3" class="node"><title>Customer</title>
<ellipse fill="none" stroke="black" cx="195" cy="-90" rx="45.4919" ry="18"/>
<text text-anchor="middle" x="195" y="-86.3" font-family="Times,serif" font-size="14.00">Customer</text>
</g>
<!-- Customer&#45;&gt;Address -->
<g id="edge1" class="edge"><title>Customer&#45;&gt;Address</title>
<path fill="none" stroke="#dfd36c" d="M195,-63.6398C195,-58.0629 195,-52.1319 195,-46.4761"/>
<ellipse fill="none" stroke="#dfd36c" cx="195" cy="-67.6966" rx="4" ry="4"/>
<polygon fill="#dfd36c" stroke="#dfd36c" points="195,-46.1043 199.5,-36.1043 195,-41.1043 195,-36.1043 195,-36.1043 195,-36.1043 195,-41.1043 190.5,-36.1044 195,-46.1043 195,-46.1043"/>
</g>
<!-- Zone -->
<g id="node4" class="node"><title>Zone</title>
<ellipse fill="none" stroke="black" cx="261" cy="-183" rx="28.6953" ry="18"/>
<text text-anchor="middle" x="261" y="-179.3" font-family="Times,serif" font-size="14.00">Zone</text>
</g>
<!-- Zone&#45;&gt;Customer -->
<g id="edge3" class="edge"><title>Zone&#45;&gt;Customer</title>
<path fill="none" stroke="#a285e6" d="M244.76,-159.609C235.186,-146.408 223.049,-129.674 213.159,-116.037"/>
<ellipse fill="none" stroke="#a285e6" cx="247.155" cy="-162.911" rx="4.00002" ry="4.00002"/>
<polygon fill="#a285e6" stroke="#a285e6" points="212.905,-115.687 210.676,-104.95 209.969,-111.639 207.033,-107.592 207.033,-107.592 207.033,-107.592 209.969,-111.639 203.391,-110.234 212.905,-115.687 212.905,-115.687"/>
</g>
<!-- CoordinateZone -->
<g id="node6" class="node"><title>CoordinateZone</title>
<ellipse fill="none" stroke="black" cx="326" cy="-90" rx="67.6881" ry="18"/>
<text text-anchor="middle" x="326" y="-86.3" font-family="Times,serif" font-size="14.00">CoordinateZone</text>
</g>
<!-- Zone&#45;&gt;CoordinateZone -->
<g id="edge2" class="edge"><title>Zone&#45;&gt;CoordinateZone</title>
<path fill="none" stroke="#514043" d="M277.27,-159.222C286.605,-146.153 298.343,-129.72 307.96,-116.256"/>
<ellipse fill="none" stroke="#514043" cx="274.647" cy="-162.894" rx="4.00002" ry="4.00002"/>
<polygon fill="#514043" stroke="#514043" points="308.114,-116.04 317.588,-110.519 311.02,-111.972 313.926,-107.903 313.926,-107.903 313.926,-107.903 311.02,-111.972 310.265,-105.288 308.114,-116.04 308.114,-116.04"/>
</g>
<!-- ApplicationRecord -->
<g id="node5" class="node"><title>ApplicationRecord</title>
<ellipse fill="none" stroke="black" cx="385" cy="-183" rx="77.1866" ry="18"/>
<text text-anchor="middle" x="385" y="-179.3" font-family="Times,serif" font-size="14.00">ApplicationRecord</text>
</g>
</g>
</svg>
